<?xml version="1.0" encoding="UTF-8" standalone="no"?>
<svg viewBox="0 0 128 128" version="1.1" xmlns="http://www.w3.org/2000/svg" xmlns:xlink="http://www.w3.org/1999/xlink" xmlns:sketch="http://www.bohemiancoding.com/sketch/ns">
    <defs></defs>
    <g id="Page-1" stroke="none" stroke-width="1" fill="none" fill-rule="evenodd" sketch:type="MSPage">
        <g id="Artboard-1" sketch:type="MSArtboardGroup">
            <rect id="background" fill="#DE4056" sketch:type="MSShapeGroup" x="0" y="0" width="128" height="128"></rect>
            <path d="M107,171.122249 L264.122249,14 L264.122249,200.310836 L107,171.122249 Z" id="Path-1" fill="#FFFFFF" sketch:type="MSShapeGroup"></path>
            <path d="M67.1411358,39.5211668 C66.408602,38.5935708 65.2738382,38 64,38 C62.8451133,38 61.8025397,38.4916639 61.0715243,39.2775922 C60.8280429,39.4321077 60.5976631,39.6155403 60.3852891,39.8279143 L44.8279143,55.3852891 C43.2634546,56.9497488 43.26633,59.4795334 44.8284271,61.0416306 C46.3873457,62.6005492 48.9229546,62.6039573 50.4847686,61.0421434 L60,51.5269119 L60,84.9981155 C60,87.2147869 61.790861,89 64,89 C66.2046438,89 68,87.2082953 68,84.9981155 L68,51.6568542 L77.3852891,61.0421434 C78.9497488,62.6066031 81.4795334,62.6037277 83.0416306,61.0416306 C84.6005492,59.4827119 84.6039573,56.9471031 83.0421434,55.3852891 L67.4847686,39.8279143 C67.3747724,39.7179181 67.2600041,39.6156699 67.1411358,39.5211668 Z" id="Rectangle-1" fill="#FFFFFF" sketch:type="MSShapeGroup"></path>
            <path d="M64,107 C87.7482442,107 107,87.7482442 107,64 C107,40.2517558 87.7482442,21 64,21 C40.2517558,21 21,40.2517558 21,64 C21,87.7482442 40.2517558,107 64,107 Z M64,102 C84.9868205,102 102,84.9868205 102,64 C102,43.0131795 84.9868205,26 64,26 C43.0131795,26 26,43.0131795 26,64 C26,84.9868205 43.0131795,102 64,102 Z" id="Oval-9" fill="#FFFFFF" sketch:type="MSShapeGroup"></path>
        </g>
    </g>
</svg>
